<svg xmlns="http://www.w3.org/2000/svg" viewBox="0 0 640 400" role="img" aria-label="Vista previa del Addendador Finkok">
  <defs>
    <linearGradient id="ad-bg" x1="0" y1="0" x2="1" y2="1">
      <stop offset="0" stop-color="#0c0a14"/>
      <stop offset="1" stop-color="#150e24"/>
    </linearGradient>
    <radialGradient id="ad-glow" cx="0.85" cy="0.15" r="0.9">
      <stop offset="0" stop-color="#a78bfa" stop-opacity="0.28"/>
      <stop offset="1" stop-color="#a78bfa" stop-opacity="0"/>
    </radialGradient>
    <linearGradient id="ad-accent" x1="0" y1="0" x2="1" y2="0">
      <stop offset="0" stop-color="#7c3aed"/>
      <stop offset="1" stop-color="#a78bfa"/>
    </linearGradient>
  </defs>

  <rect width="640" height="400" fill="url(#ad-bg)"/>
  <rect width="640" height="400" fill="url(#ad-glow)"/>

  <!-- Barra de navegador -->
  <rect width="640" height="46" fill="#080610"/>
  <circle cx="26" cy="23" r="5.5" fill="#f87171"/>
  <circle cx="48" cy="23" r="5.5" fill="#fbbf24"/>
  <circle cx="70" cy="23" r="5.5" fill="#34d399"/>
  <rect x="100" y="12" width="440" height="22" rx="11" fill="#171126"/>
  <text x="116" y="27" font-family="ui-monospace, monospace" font-size="11" fill="#9d8fd0">addendador.finkok.com</text>

  <!-- Header del panel -->
  <text x="48" y="96" font-family="system-ui, sans-serif" font-size="18" font-weight="700" fill="#ece7fb">Catálogo de Addendas</text>
  <rect x="48" y="110" width="220" height="8" rx="4" fill="#221839"/>
  <rect x="490" y="78" width="102" height="30" rx="15" fill="url(#ad-accent)"/>
  <text x="541" y="97" font-family="system-ui, sans-serif" font-size="12" font-weight="600" fill="#fff" text-anchor="middle">+ Nueva</text>

  <!-- Tabla -->
  <rect x="48" y="136" width="544" height="228" rx="12" fill="#0d0817" stroke="#241a3d"/>
  <rect x="48" y="136" width="544" height="36" rx="12" fill="#130d22"/>
  <text x="68" y="159" font-family="ui-monospace, monospace" font-size="10" fill="#7d70ab">CLIENTE</text>
  <text x="250" y="159" font-family="ui-monospace, monospace" font-size="10" fill="#7d70ab">ADDENDA</text>
  <text x="420" y="159" font-family="ui-monospace, monospace" font-size="10" fill="#7d70ab">ESTATUS</text>

  <g font-family="system-ui, sans-serif" font-size="12">
    <text x="68" y="202" fill="#cfc6ec">Liverpool</text>
    <text x="250" y="202" fill="#8b80b8">Addenda v2.1</text>
    <rect x="420" y="186" width="76" height="20" rx="10" fill="#10b981" opacity="0.18"/>
    <text x="458" y="200" fill="#34d399" text-anchor="middle" font-size="10.5">Activa</text>

    <text x="68" y="242" fill="#cfc6ec">Soriana</text>
    <text x="250" y="242" fill="#8b80b8">Detallista AMA</text>
    <rect x="420" y="226" width="76" height="20" rx="10" fill="#10b981" opacity="0.18"/>
    <text x="458" y="240" fill="#34d399" text-anchor="middle" font-size="10.5">Activa</text>

    <text x="68" y="282" fill="#cfc6ec">Walmart</text>
    <text x="250" y="282" fill="#8b80b8">Addenda WM</text>
    <rect x="420" y="266" width="76" height="20" rx="10" fill="#f59e0b" opacity="0.2"/>
    <text x="458" y="280" fill="#fbbf24" text-anchor="middle" font-size="10.5">Revisión</text>

    <text x="68" y="322" fill="#cfc6ec">Coppel</text>
    <text x="250" y="322" fill="#8b80b8">Addenda CPL</text>
    <rect x="420" y="306" width="76" height="20" rx="10" fill="#10b981" opacity="0.18"/>
    <text x="458" y="320" fill="#34d399" text-anchor="middle" font-size="10.5">Activa</text>
  </g>
  <line x1="48" y1="212" x2="592" y2="212" stroke="#1b1330"/>
  <line x1="48" y1="252" x2="592" y2="252" stroke="#1b1330"/>
  <line x1="48" y1="292" x2="592" y2="292" stroke="#1b1330"/>
  <line x1="48" y1="332" x2="592" y2="332" stroke="#1b1330"/>
</svg>
